<svg width="18" height="20" viewBox="0 0 18 20" fill="none" xmlns="http://www.w3.org/2000/svg">
<mask id="path-1-outside-1_301_10" maskUnits="userSpaceOnUse" x="3" y="1" width="12" height="17" fill="black">
<rect fill="white" x="3" y="1" width="12" height="17"/>
<path d="M4.25746 17V2.45455H9.34268C10.3559 2.45455 11.1916 2.62973 11.8498 2.98011C12.5079 3.32576 12.998 3.79214 13.32 4.37926C13.6419 4.96165 13.8029 5.60795 13.8029 6.31818C13.8029 6.94318 13.6916 7.45928 13.4691 7.86648C13.2513 8.27367 12.9625 8.59564 12.6026 8.83239C12.2475 9.06913 11.8616 9.24432 11.445 9.35795V9.5C11.89 9.52841 12.3375 9.68466 12.7873 9.96875C13.2371 10.2528 13.6135 10.66 13.9165 11.1903C14.2196 11.7206 14.3711 12.3693 14.3711 13.1364C14.3711 13.8655 14.2054 14.5213 13.8739 15.1037C13.5425 15.6861 13.0193 16.1477 12.3043 16.4886C11.5894 16.8295 10.659 17 9.51314 17H4.25746ZM6.01882 15.4375H9.51314C10.6637 15.4375 11.4805 15.215 11.9634 14.7699C12.4511 14.3201 12.695 13.7756 12.695 13.1364C12.695 12.6439 12.5695 12.1894 12.3185 11.7727C12.0676 11.3513 11.7101 11.0152 11.2461 10.7642C10.7821 10.5085 10.2328 10.3807 9.59837 10.3807H6.01882V15.4375ZM6.01882 8.84659H9.28587C9.81617 8.84659 10.2944 8.74242 10.7205 8.53409C11.1514 8.32576 11.4923 8.0322 11.7433 7.65341C11.9989 7.27462 12.1268 6.82955 12.1268 6.31818C12.1268 5.67898 11.9042 5.13684 11.4592 4.69176C11.0141 4.24195 10.3086 4.01705 9.34268 4.01705H6.01882V8.84659Z"/>
</mask>
<path d="M4.25746 17V2.45455H9.34268C10.3559 2.45455 11.1916 2.62973 11.8498 2.98011C12.5079 3.32576 12.998 3.79214 13.32 4.37926C13.6419 4.96165 13.8029 5.60795 13.8029 6.31818C13.8029 6.94318 13.6916 7.45928 13.4691 7.86648C13.2513 8.27367 12.9625 8.59564 12.6026 8.83239C12.2475 9.06913 11.8616 9.24432 11.445 9.35795V9.5C11.89 9.52841 12.3375 9.68466 12.7873 9.96875C13.2371 10.2528 13.6135 10.66 13.9165 11.1903C14.2196 11.7206 14.3711 12.3693 14.3711 13.1364C14.3711 13.8655 14.2054 14.5213 13.8739 15.1037C13.5425 15.6861 13.0193 16.1477 12.3043 16.4886C11.5894 16.8295 10.659 17 9.51314 17H4.25746ZM6.01882 15.4375H9.51314C10.6637 15.4375 11.4805 15.215 11.9634 14.7699C12.4511 14.3201 12.695 13.7756 12.695 13.1364C12.695 12.6439 12.5695 12.1894 12.3185 11.7727C12.0676 11.3513 11.7101 11.0152 11.2461 10.7642C10.7821 10.5085 10.2328 10.3807 9.59837 10.3807H6.01882V15.4375ZM6.01882 8.84659H9.28587C9.81617 8.84659 10.2944 8.74242 10.7205 8.53409C11.1514 8.32576 11.4923 8.0322 11.7433 7.65341C11.9989 7.27462 12.1268 6.82955 12.1268 6.31818C12.1268 5.67898 11.9042 5.13684 11.4592 4.69176C11.0141 4.24195 10.3086 4.01705 9.34268 4.01705H6.01882V8.84659Z" fill="black"/>
<path d="M4.25746 17H3.75746V17.5H4.25746V17ZM4.25746 2.45455V1.95455H3.75746V2.45455H4.25746ZM11.8498 2.98011L11.6148 3.42147L11.6173 3.42278L11.8498 2.98011ZM13.32 4.37926L12.8815 4.61968L12.8824 4.62118L13.32 4.37926ZM13.4691 7.86648L13.0303 7.62668L13.0282 7.63065L13.4691 7.86648ZM12.6026 8.83239L12.3278 8.41467L12.3253 8.41636L12.6026 8.83239ZM11.445 9.35795L11.3134 8.87557L10.945 8.97606V9.35795H11.445ZM11.445 9.5H10.945V9.9691L11.4131 9.99898L11.445 9.5ZM12.7873 9.96875L12.5203 10.3915L12.5203 10.3915L12.7873 9.96875ZM13.8739 15.1037L14.3085 15.351L14.3085 15.351L13.8739 15.1037ZM12.3043 16.4886L12.0891 16.0373L12.0891 16.0373L12.3043 16.4886ZM6.01882 15.4375H5.51882V15.9375H6.01882V15.4375ZM11.9634 14.7699L12.3023 15.1376L12.3024 15.1374L11.9634 14.7699ZM12.3185 11.7727L11.8889 12.0286L11.8902 12.0307L12.3185 11.7727ZM11.2461 10.7642L11.0048 11.2021L11.0082 11.204L11.2461 10.7642ZM6.01882 10.3807V9.88068H5.51882V10.3807H6.01882ZM6.01882 8.84659H5.51882V9.34659H6.01882V8.84659ZM10.7205 8.53409L10.5029 8.08394L10.5009 8.0849L10.7205 8.53409ZM11.7433 7.65341L11.3288 7.37366L11.3264 7.37726L11.7433 7.65341ZM11.4592 4.69176L11.1037 5.04344L11.1056 5.04531L11.4592 4.69176ZM6.01882 4.01705V3.51705H5.51882V4.01705H6.01882ZM4.75746 17V2.45455H3.75746V17H4.75746ZM4.25746 2.95455H9.34268V1.95455H4.25746V2.95455ZM9.34268 2.95455C10.3021 2.95455 11.0503 3.12092 11.6148 3.42147L12.0848 2.53876C11.333 2.13855 10.4098 1.95455 9.34268 1.95455V2.95455ZM11.6173 3.42278C12.1984 3.72794 12.612 4.12811 12.8816 4.61968L13.7584 4.13885C13.384 3.45617 12.8175 2.92357 12.0823 2.53745L11.6173 3.42278ZM12.8824 4.62118C13.1607 5.12453 13.3029 5.6867 13.3029 6.31818H14.3029C14.3029 5.52921 14.1232 4.79877 13.7575 4.13735L12.8824 4.62118ZM13.3029 6.31818C13.3029 6.88726 13.2012 7.31412 13.0304 7.62669L13.9079 8.10626C14.1821 7.60444 14.3029 6.9991 14.3029 6.31818H13.3029ZM13.0282 7.63065C12.8468 7.96977 12.613 8.22705 12.3278 8.41468L12.8774 9.25009C13.3119 8.96424 13.6558 8.57757 13.91 8.1023L13.0282 7.63065ZM12.3253 8.41636C12.0154 8.62293 11.6788 8.7759 11.3134 8.87557L11.5765 9.84034C12.0444 9.71273 12.4796 9.51532 12.88 9.24841L12.3253 8.41636ZM10.945 9.35795V9.5H11.945V9.35795H10.945ZM11.4131 9.99898C11.7599 10.0211 12.1276 10.1435 12.5203 10.3915L13.0543 9.54601C12.5473 9.22583 12.0201 9.0357 11.4768 9.00102L11.4131 9.99898ZM12.5203 10.3915C12.8913 10.6258 13.2139 10.9685 13.4824 11.4384L14.3507 10.9423C14.0131 10.3515 13.5829 9.87986 13.0543 9.54601L12.5203 10.3915ZM13.4824 11.4384C13.7326 11.8762 13.8711 12.4344 13.8711 13.1364H14.8711C14.8711 12.3042 14.7066 11.5651 14.3507 10.9423L13.4824 11.4384ZM13.8711 13.1364C13.8711 13.7867 13.7242 14.3559 13.4394 14.8564L14.3085 15.351C14.6866 14.6867 14.8711 13.9444 14.8711 13.1364H13.8711ZM13.4394 14.8564C13.1672 15.3347 12.7291 15.7322 12.0891 16.0373L12.5195 16.94C13.3095 16.5633 13.9178 16.0375 14.3085 15.351L13.4394 14.8564ZM12.0891 16.0373C11.4645 16.3351 10.6153 16.5 9.51314 16.5V17.5C10.7027 17.5 11.7142 17.3239 12.5195 16.94L12.0891 16.0373ZM9.51314 16.5H4.25746V17.5H9.51314V16.5ZM6.01882 15.9375H9.51314V14.9375H6.01882V15.9375ZM9.51314 15.9375C10.703 15.9375 11.6788 15.7122 12.3023 15.1376L11.6246 14.4022C11.2822 14.7178 10.6244 14.9375 9.51314 14.9375V15.9375ZM12.3024 15.1374C12.8883 14.597 13.195 13.9211 13.195 13.1364H12.195C12.195 13.6301 12.0139 14.0431 11.6244 14.4023L12.3024 15.1374ZM13.195 13.1364C13.195 12.5542 13.0453 12.0103 12.7469 11.5148L11.8902 12.0307C12.0937 12.3685 12.195 12.7337 12.195 13.1364H13.195ZM12.7481 11.5169C12.4475 11.0121 12.0211 10.6149 11.4839 10.3244L11.0082 11.204C11.3991 11.4154 11.6876 11.6905 11.8889 12.0286L12.7481 11.5169ZM11.4874 10.3263C10.9362 10.0225 10.3006 9.88068 9.59837 9.88068V10.8807C10.1651 10.8807 10.628 10.9945 11.0048 11.2021L11.4874 10.3263ZM9.59837 9.88068H6.01882V10.8807H9.59837V9.88068ZM5.51882 10.3807V15.4375H6.51882V10.3807H5.51882ZM6.01882 9.34659H9.28587V8.34659H6.01882V9.34659ZM9.28587 9.34659C9.88322 9.34659 10.4379 9.22881 10.9401 8.98328L10.5009 8.0849C10.1509 8.25604 9.74912 8.34659 9.28587 8.34659V9.34659ZM10.9382 8.98423C11.4454 8.739 11.8569 8.38722 12.1601 7.92956L11.3264 7.37726C11.1277 7.67718 10.8574 7.91252 10.5029 8.08395L10.9382 8.98423ZM12.1577 7.93315C12.4756 7.46208 12.6268 6.91693 12.6268 6.31818H11.6268C11.6268 6.74216 11.5222 7.08716 11.3288 7.37367L12.1577 7.93315ZM12.6268 6.31818C12.6268 5.54868 12.3532 4.87867 11.8127 4.33821L11.1056 5.04531C11.4553 5.395 11.6268 5.80927 11.6268 6.31818H12.6268ZM11.8146 4.34008C11.2362 3.7555 10.373 3.51705 9.34268 3.51705V4.51705C10.2442 4.51705 10.792 4.7284 11.1037 5.04344L11.8146 4.34008ZM9.34268 3.51705H6.01882V4.51705H9.34268V3.51705ZM5.51882 4.01705V8.84659H6.51882V4.01705H5.51882Z" fill="black" mask="url(#path-1-outside-1_301_10)"/>
</svg>
