<svg width="18" height="20" viewBox="0 0 18 20" fill="none" xmlns="http://www.w3.org/2000/svg">
<rect x="18" y="20" width="18" height="1.96721" transform="rotate(-180 18 20)" fill="black"/>
<path d="M8.64645 15.3536C8.84171 15.5488 9.15829 15.5488 9.35355 15.3536L12.5355 12.1716C12.7308 11.9763 12.7308 11.6597 12.5355 11.4645C12.3403 11.2692 12.0237 11.2692 11.8284 11.4645L9 14.2929L6.17157 11.4645C5.97631 11.2692 5.65973 11.2692 5.46447 11.4645C5.2692 11.6597 5.2692 11.9763 5.46447 12.1716L8.64645 15.3536ZM8.5 0L8.5 5.25H9.5L9.5 0L8.5 0ZM8.5 5.25L8.5 11.25H9.5L9.5 5.25H8.5ZM8.5 11.25V15H9.5V11.25H8.5Z" fill="black"/>
</svg>
