<svg width="18" height="20" viewBox="0 0 18 20" fill="none" xmlns="http://www.w3.org/2000/svg">
<mask id="path-1-outside-1_301_12" maskUnits="userSpaceOnUse" x="5" y="3" width="9" height="16" fill="black">
<rect fill="white" x="5" y="3" width="9" height="16"/>
<path d="M8.24758 4.9L8.34758 4.4H12.7276L12.6276 4.9L11.5276 5C11.3809 5.01333 11.2742 5.04 11.2076 5.08C11.1409 5.10667 11.0876 5.18667 11.0476 5.32C11.0076 5.44 10.9609 5.66 10.9076 5.98L9.06758 16.42C8.98758 16.8867 8.96091 17.16 8.98758 17.24C9.01424 17.32 9.12758 17.3733 9.32758 17.4L10.4076 17.5L10.3276 18H5.94758L6.02758 17.5L7.14758 17.4C7.29424 17.3867 7.40091 17.3667 7.46758 17.34C7.53424 17.3 7.58758 17.2133 7.62758 17.08C7.66758 16.9467 7.71424 16.7267 7.76758 16.42L9.60758 5.98C9.68758 5.51333 9.71425 5.24 9.68758 5.16C9.66091 5.06667 9.54758 5.01333 9.34758 5L8.24758 4.9Z"/>
</mask>
<path d="M8.24758 4.9L8.34758 4.4H12.7276L12.6276 4.9L11.5276 5C11.3809 5.01333 11.2742 5.04 11.2076 5.08C11.1409 5.10667 11.0876 5.18667 11.0476 5.32C11.0076 5.44 10.9609 5.66 10.9076 5.98L9.06758 16.42C8.98758 16.8867 8.96091 17.16 8.98758 17.24C9.01424 17.32 9.12758 17.3733 9.32758 17.4L10.4076 17.5L10.3276 18H5.94758L6.02758 17.5L7.14758 17.4C7.29424 17.3867 7.40091 17.3667 7.46758 17.34C7.53424 17.3 7.58758 17.2133 7.62758 17.08C7.66758 16.9467 7.71424 16.7267 7.76758 16.42L9.60758 5.98C9.68758 5.51333 9.71425 5.24 9.68758 5.16C9.66091 5.06667 9.54758 5.01333 9.34758 5L8.24758 4.9Z" fill="black"/>
<path d="M8.24758 4.9L7.75729 4.80194L7.64816 5.34757L8.20231 5.39795L8.24758 4.9ZM8.34758 4.4V3.9H7.93768L7.85729 4.30194L8.34758 4.4ZM12.7276 4.4L13.2179 4.49806L13.3375 3.9H12.7276V4.4ZM12.6276 4.9L12.6728 5.39795L13.0447 5.36415L13.1179 4.99806L12.6276 4.9ZM11.5276 5L11.5728 5.49795L11.5728 5.49795L11.5276 5ZM11.2076 5.08L11.3933 5.54424L11.4305 5.52936L11.4648 5.50875L11.2076 5.08ZM11.0476 5.32L11.5219 5.47811L11.5243 5.47093L11.5265 5.46367L11.0476 5.32ZM10.9076 5.98L11.4 6.06679L11.4008 6.0622L10.9076 5.98ZM9.06758 16.42L8.57516 16.3332L8.57477 16.3355L9.06758 16.42ZM8.98758 17.24L9.46192 17.0819L9.46192 17.0819L8.98758 17.24ZM9.32758 17.4L9.2615 17.8956L9.27147 17.8969L9.28148 17.8979L9.32758 17.4ZM10.4076 17.5L10.9013 17.579L10.9857 17.0514L10.4537 17.0021L10.4076 17.5ZM10.3276 18V18.5H10.7539L10.8213 18.079L10.3276 18ZM5.94758 18L5.45386 17.921L5.36122 18.5H5.94758V18ZM6.02758 17.5L5.98311 17.002L5.59536 17.0366L5.53386 17.421L6.02758 17.5ZM7.14758 17.4L7.19204 17.898L7.19285 17.8979L7.14758 17.4ZM7.46758 17.34L7.65327 17.8042L7.69047 17.7894L7.72483 17.7687L7.46758 17.34ZM7.62758 17.08L7.14867 16.9363L7.14867 16.9363L7.62758 17.08ZM7.76758 16.42L7.27517 16.3332L7.27497 16.3343L7.76758 16.42ZM9.60758 5.98L10.1 6.06679L10.1004 6.06448L9.60758 5.98ZM9.68758 5.16L9.20682 5.29736L9.2098 5.30781L9.21324 5.31811L9.68758 5.16ZM9.34758 5L9.3023 5.49809L9.31432 5.49889L9.34758 5ZM8.73787 4.99806L8.83787 4.49806L7.85729 4.30194L7.75729 4.80194L8.73787 4.99806ZM8.34758 4.9H12.7276V3.9H8.34758V4.9ZM12.2373 4.30194L12.1373 4.80194L13.1179 4.99806L13.2179 4.49806L12.2373 4.30194ZM12.5823 4.40205L11.4823 4.50205L11.5728 5.49795L12.6728 5.39795L12.5823 4.40205ZM11.4823 4.50205C11.3161 4.51716 11.1165 4.55154 10.9503 4.65125L11.4648 5.50875C11.4424 5.52222 11.4353 5.52097 11.4588 5.51507C11.4805 5.50967 11.5171 5.50301 11.5728 5.49795L11.4823 4.50205ZM11.0219 4.61576C10.7257 4.73423 10.6149 5.02214 10.5687 5.17633L11.5265 5.46367C11.538 5.42518 11.5437 5.42223 11.5336 5.43735C11.5228 5.45349 11.4809 5.50919 11.3933 5.54424L11.0219 4.61576ZM10.5732 5.16189C10.5193 5.3237 10.4674 5.57973 10.4144 5.8978L11.4008 6.0622C11.4544 5.74027 11.4959 5.5563 11.5219 5.47811L10.5732 5.16189ZM10.4152 5.89321L8.57517 16.3332L9.55999 16.5068L11.4 6.06678L10.4152 5.89321ZM8.57477 16.3355C8.53396 16.5736 8.50499 16.7722 8.48994 16.9265C8.48246 17.0031 8.47758 17.0771 8.47758 17.1438C8.47758 17.1961 8.4795 17.2969 8.51324 17.3981L9.46192 17.0819C9.48233 17.1431 9.47758 17.1797 9.47758 17.1437C9.47758 17.1221 9.47936 17.0835 9.48522 17.0235C9.49683 16.9045 9.5212 16.7331 9.56039 16.5045L8.57477 16.3355ZM8.51324 17.3981C8.58706 17.6196 8.7593 17.7358 8.87968 17.7924C9.0023 17.8501 9.13768 17.8791 9.2615 17.8956L9.39366 16.9044C9.35854 16.8997 9.33376 16.8947 9.31752 16.8905C9.30069 16.8862 9.2983 16.8842 9.30548 16.8876C9.31252 16.8909 9.41476 16.9404 9.46192 17.0819L8.51324 17.3981ZM9.28148 17.8979L10.3615 17.9979L10.4537 17.0021L9.37368 16.9021L9.28148 17.8979ZM9.91386 17.421L9.83386 17.921L10.8213 18.079L10.9013 17.579L9.91386 17.421ZM10.3276 17.5H5.94758V18.5H10.3276V17.5ZM6.4413 18.079L6.5213 17.579L5.53386 17.421L5.45386 17.921L6.4413 18.079ZM6.07204 17.998L7.19204 17.898L7.10311 16.902L5.98311 17.002L6.07204 17.998ZM7.19285 17.8979C7.34822 17.8838 7.51567 17.8593 7.65327 17.8042L7.28188 16.8758C7.28991 16.8726 7.28123 16.8769 7.24543 16.8836C7.21197 16.8898 7.16506 16.8963 7.10231 16.9021L7.19285 17.8979ZM7.72483 17.7687C7.95572 17.6302 8.05626 17.3911 8.10649 17.2237L7.14867 16.9363C7.14309 16.9549 7.13826 16.9678 7.13479 16.976C7.13128 16.9842 7.12991 16.9859 7.13175 16.983C7.13458 16.9784 7.157 16.9433 7.21033 16.9113L7.72483 17.7687ZM8.10649 17.2237C8.15574 17.0595 8.20655 16.8141 8.26018 16.5057L7.27497 16.3343C7.22194 16.6393 7.17941 16.8338 7.14867 16.9363L8.10649 17.2237ZM8.25999 16.5068L10.1 6.06678L9.11517 5.89321L7.27517 16.3332L8.25999 16.5068ZM10.1004 6.06448C10.1412 5.82642 10.1702 5.6278 10.1852 5.47355C10.1927 5.39686 10.1976 5.32291 10.1976 5.25625C10.1976 5.2039 10.1957 5.1031 10.1619 5.00189L9.21324 5.31811C9.19283 5.2569 9.19758 5.22027 9.19758 5.25625C9.19758 5.27792 9.19579 5.31647 9.18994 5.37645C9.17832 5.49553 9.15396 5.66692 9.11477 5.89552L10.1004 6.06448ZM10.1683 5.02264C10.1045 4.79931 9.94221 4.66664 9.79548 4.59759C9.6587 4.53323 9.51021 4.50973 9.38084 4.50111L9.31432 5.49889C9.38495 5.5036 9.39312 5.51344 9.36968 5.50241C9.35493 5.49547 9.32343 5.47812 9.28965 5.44274C9.25377 5.40514 9.22341 5.35545 9.20682 5.29736L10.1683 5.02264ZM9.39285 4.50205L8.29285 4.40205L8.20231 5.39795L9.30231 5.49795L9.39285 4.50205Z" fill="black" mask="url(#path-1-outside-1_301_12)"/>
</svg>
