<svg width="22" height="22" viewBox="0 0 22 22" fill="none" xmlns="http://www.w3.org/2000/svg">
<g clip-path="url(#clip0_201_3)">
<path d="M14.3201 1C15.4721 1 15.9201 3.02667 16.0001 4.04H5.6001C5.6001 1.608 6.66676 1 7.2001 1H14.3201Z" stroke="#343434" stroke-width="1.36"/>
<rect y="3.23999" width="21.6" height="1.6" rx="0.8" fill="#343434"/>
<rect x="8.95996" y="6.12" width="11.04" height="1.6" rx="0.8" transform="rotate(90 8.95996 6.12)" fill="#343434"/>
<rect x="14.0801" y="6.12" width="11.04" height="1.6" rx="0.8" transform="rotate(90 14.0801 6.12)" fill="#343434"/>
<rect x="19.04" y="6.12" width="11.84" height="1.6" rx="0.8" transform="rotate(90 19.04 6.12)" fill="#343434"/>
<path d="M3.2002 17.4C3.22686 18.6 3.8882 21 6.3202 21H15.2002C16.2135 21 18.2402 20.04 18.2402 17.16" stroke="#343434" stroke-width="1.36"/>
<rect x="4" y="6.12" width="12.16" height="1.6" rx="0.8" transform="rotate(90 4 6.12)" fill="#343434"/>
</g>
<defs>
<clipPath id="clip0_201_3">
<rect width="22" height="22" fill="white"/>
</clipPath>
</defs>
</svg>
