<svg width="18" height="20" viewBox="0 0 18 20" fill="none" xmlns="http://www.w3.org/2000/svg">
<rect x="18" y="11.1111" width="18" height="1.45719" transform="rotate(-180 18 11.1111)" fill="black"/>
<path d="M8.64645 7.76096C8.84171 7.95622 9.15829 7.95622 9.35355 7.76096L12.5355 4.57898C12.7308 4.38372 12.7308 4.06714 12.5355 3.87187C12.3403 3.67661 12.0237 3.67661 11.8284 3.87187L9 6.7003L6.17157 3.87187C5.97631 3.67661 5.65973 3.67661 5.46447 3.87187C5.2692 4.06714 5.2692 4.38372 5.46447 4.57898L8.64645 7.76096ZM8.5 0V2.59259H9.5V0L8.5 0ZM8.5 2.59259V5.55556H9.5V2.59259H8.5ZM8.5 5.55556V7.40741H9.5V5.55556H8.5Z" fill="black"/>
<path d="M9.35355 12.239C9.15829 12.0438 8.84171 12.0438 8.64645 12.239L5.46447 15.421C5.2692 15.6163 5.2692 15.9329 5.46447 16.1281C5.65973 16.3234 5.97631 16.3234 6.17157 16.1281L9 13.2997L11.8284 16.1281C12.0237 16.3234 12.3403 16.3234 12.5355 16.1281C12.7308 15.9329 12.7308 15.6163 12.5355 15.421L9.35355 12.239ZM9.5 20V17.4074H8.5V20H9.5ZM9.5 17.4074V14.4444H8.5V17.4074H9.5ZM9.5 14.4444L9.5 12.5926H8.5L8.5 14.4444H9.5Z" fill="black"/>
</svg>
