<svg width="18" height="20" viewBox="0 0 18 20" fill="none" xmlns="http://www.w3.org/2000/svg">
<rect width="18" height="1.96721" fill="black"/>
<path d="M9.35355 4.64645C9.15829 4.45118 8.84171 4.45118 8.64645 4.64645L5.46447 7.82843C5.2692 8.02369 5.2692 8.34027 5.46447 8.53553C5.65973 8.7308 5.97631 8.7308 6.17157 8.53553L9 5.70711L11.8284 8.53553C12.0237 8.7308 12.3403 8.7308 12.5355 8.53553C12.7308 8.34027 12.7308 8.02369 12.5355 7.82843L9.35355 4.64645ZM9.5 20V14.75H8.5V20H9.5ZM9.5 14.75L9.5 8.75H8.5L8.5 14.75H9.5ZM9.5 8.75V5H8.5V8.75H9.5Z" fill="black"/>
</svg>
