<svg width="49" height="32" viewBox="0 0 49 32" fill="none" xmlns="http://www.w3.org/2000/svg">
<rect x="11.0576" y="11.0576" width="36.9423" height="19.6346" rx="4" stroke="black" stroke-width="2"/>
<path d="M4.35355 14.0309C4.15829 13.8356 3.84171 13.8356 3.64645 14.0309L0.464466 17.2129C0.269204 17.4081 0.269204 17.7247 0.464466 17.92C0.659728 18.1152 0.976311 18.1152 1.17157 17.92L4 15.0916L6.82843 17.92C7.02369 18.1152 7.34027 18.1152 7.53553 17.92C7.7308 17.7247 7.7308 17.4081 7.53553 17.2129L4.35355 14.0309ZM4.5 14.8171V14.3844H3.5V14.8171H4.5Z" fill="black"/>
<path d="M4 14.8171L4 27.7979" stroke="black" stroke-linecap="round"/>
<path d="M3.64645 28.5841C3.84171 28.7794 4.15829 28.7794 4.35355 28.5841L7.53553 25.4021C7.7308 25.2069 7.7308 24.8903 7.53553 24.695C7.34027 24.4997 7.02369 24.4997 6.82843 24.695L4 27.5234L1.17157 24.695C0.976311 24.4997 0.659728 24.4997 0.464466 24.695C0.269204 24.8903 0.269204 25.2069 0.464466 25.4021L3.64645 28.5841ZM3.5 27.7979V28.2305H4.5V27.7979H3.5Z" fill="black"/>
<path d="M15.762 3.64645C15.5668 3.84171 15.5668 4.15829 15.762 4.35355L18.944 7.53553C19.1393 7.7308 19.4558 7.7308 19.6511 7.53553C19.8464 7.34027 19.8464 7.02369 19.6511 6.82843L16.8227 4L19.6511 1.17157C19.8464 0.976311 19.8464 0.659728 19.6511 0.464466C19.4558 0.269204 19.1393 0.269204 18.944 0.464466L15.762 3.64645ZM16.981 3.5H16.1156V4.5H16.981V3.5Z" fill="black"/>
<path d="M16.981 4L42.9425 4" stroke="black" stroke-linecap="round"/>
<path d="M44.1613 4.35355C44.3566 4.15829 44.3566 3.84171 44.1613 3.64645L40.9793 0.464466C40.7841 0.269204 40.4675 0.269204 40.2722 0.464466C40.077 0.659728 40.077 0.976311 40.2722 1.17157L43.1007 4L40.2722 6.82843C40.077 7.02369 40.077 7.34027 40.2722 7.53553C40.4675 7.7308 40.7841 7.7308 40.9793 7.53553L44.1613 4.35355ZM42.9424 4.5H43.8078V3.5H42.9424V4.5Z" fill="black"/>
</svg>
